{"accessors" : [{"bufferView" : 0, "byteOffset" : 0, "componentType" : 5123, "count" : 6012, "type" : "SCALAR", "max" : [6011], "min" : [0]}, {"bufferView" : 1, "byteOffset" : 0, "componentType" : 5126, "count" : 6012, "type" : "VEC3", "max" : [2487.03271484375, 673.4925537109375, 43.87794494628906], "min" : [2414.0166015625, 607.7972412109375, 24.72688102722168], "name" : "POSITION"}, {"bufferView" : 1, "byteOffset" : 12, "componentType" : 5126, "count" : 6012, "type" : "VEC3", "max" : [0.998930037021637, 0.998930037021637, 1.0000044107437134], "min" : [-0.9997972249984741, -1.0000044107437134, -1.0000044107437134], "name" : "NORMAL"}], "asset" : {"generator" : "Aspose.3D 23.7.0", "version" : "2.0"}, "buffers" : [{"uri" : "data:application/octet-stream;base64,", "byteLength" : 156320}], "bufferViews" : [{"buffer" : 0, "byteOffset" : 0, "byteLength" : 12024, "target" : 34963}, {"buffer" : 0, "byteOffset" : 12028, "byteLength" : 144288, "byteStride" : 24, "target" : 34962}], "meshes" : [{"primitives" : [{"attributes" : {"POSITION" : 1, "NORMAL" : 2}, "indices" : 0, "mode" : 4}], "name" : "Head"}], "nodes" : [{"mesh" : 0, "name" : "Head"}], "scene" : 0, "scenes" : [{"nodes" : [0]}]}